<?xml version='1.0' encoding='utf-8'?>
<svg xmlns="http://www.w3.org/2000/svg" version="1.1" id="Capa_1" x="0px" y="0px" viewBox="0 0 576 720" style="enable-background:new 0 0 576 720;"> <style type="text/css"> .st0{fill:#352E29;} .st1{fill:#B2C465;} .st2{fill:#D8E2B0;} .st3{fill:#788962;} .st4{fill:#4F4036;} .st5{fill:#C174A0;} .st6{fill:#56463B;} .st7{fill:#F4C3C3;} .st8{fill:#F7D8C4;} .st9{fill:#F4D88C;} .st10{fill:#F2984E;} .st11{fill:#7F7C79;} .st12{fill:#96E2EA;} .st13{fill:#DB4545;} .st14{fill:#FFDCA4;} </style> <g> <path class="st0" d="M443.8,597.9c-13.1-4.5-26.4-8.5-39.9-11.9c-15.3-3.9-30.8-7-46.4-9.5c-2-0.3-2-0.3-2.3-2.2 c-2.6-12.7-8-24.1-15.3-34.7c-0.5-0.7-1-1.4-1.5-2.2c2.2-0.2,3-1,3.2-3c0.7-6.5,0.4-13,0.1-19.5c-0.2-5.5-0.6-10.9-0.3-16.4 c0.4-6.9,0.9-13.8,1.4-20.7c0.4-6.1,0.9-12.1,1.3-18.2c0.1-0.8,0.3-1.2,1.2-1.3c6.3-1.1,12.5-2.5,18.7-4.2c0.7-0.2,1.2-0.1,1.5,0.6 c0.5,0.9,1.1,1.7,1.9,2.3c5.8,4.6,12.1,5,18.7,2.2c9.4-4.1,11.2-15.3,6.5-21.3c-1.5-2-1.7-4.3-1-6.6c2.1-6.5,3.7-13.2,5.8-19.7 c0.1-0.3,0.2-0.6,0.2-0.9c0.3-3.1,0.6-6.3,0.7-9.4c0.3-9.1-0.2-18.2-1.9-27.2c-2.2-12.1-6-23.6-11.3-34.7 c-2.7-5.6-6.7-10.1-12.3-12.9c-2.6-1.3-5.2-2.4-8-3.3c-0.4-0.1-0.8-0.2-0.7-0.9c1.3-9,1.2-18.1,0.8-27.2 c-0.8-16.9-1.6-33.8-2.2-50.8c0-0.6,0.1-0.9,0.7-1c4.2-1.1,8.4-1.8,12.8-1.9c0.7,0,1,0.2,1.3,0.9c1,2.9,3.1,4.6,6,5.3 c4.8,1.3,9.3-1.1,11.5-6.1c1.9-4.4,2.2-9,1.4-13.7c-0.6-3.3-1.8-6.3-4.1-8.8c-2.5-2.6-5.6-3.5-9.1-2.5c-3.4,1-5.7,3.2-6.4,6.9 c-0.1,0.7-0.5,0.7-1,0.6c-1.9-0.2-3.8-0.3-5.7-0.5c-2.5-0.2-5-0.5-7.7-0.7c1.5-2.3,2.2-4.6,2.4-7.1c0.6-7.1,0.8-14.3,0.2-21.4 c-0.1-1.2-0.7-2.1-1.9-2.4c-0.3-0.1-0.6-0.2-0.9-0.3c-20.5-9.3-42.2-13.5-64.5-15c-6.7-0.5-13.3-0.7-20-0.8c-2.8,0-5.6,0-8.4,0 c-8.6,0.1-17.3,0.3-25.9,0.7c-9.6,0.4-19.2,0.6-28.6,2.2c-7.2,1.2-14.2,3.1-20.7,6.4c-0.8,0.4-1.4,0.9-1.6,1.8 c-0.6,2.1-1.2,4.1-1.7,6.2c-1.5,6.6-2.1,13.1,0.4,19.6c0.1,0.3,0.1,0.5,0.1,0.8c-0.2,2.3-0.4,4.7-0.5,7c0,0.6-0.2,0.7-0.8,0.7 c-4.2-0.4-8.4-0.7-12.7-1.1c-0.5,0-0.8-0.2-1-0.7c-3.1-6.4-11.1-7.3-15.6-1.8c-2.3,2.8-3.4,6.2-3.7,9.8c-0.5,4.9,0,9.6,2.7,13.8 c3.9,6,12.7,6.1,15.8,0.1c1.1-2.1,2.2-2.3,4.1-2.1c0.6,0.1,1.3,0.1,1.9,0.2c2.5,0.1,4.9,1.1,7.4,1.2c0.5,0,0.3,0.3,0.3,0.6 c-0.4,5.1-0.8,10.3-1.2,15.4c-0.8,9.8-1.7,19.6-2.1,29.4c-0.6,12.6-0.3,25.2,1.7,37.8c0.2,0.9-0.1,1.1-0.9,1.3 c-6.7,1.7-12.3,5.3-16.5,10.8c-2.8,3.6-4.9,7.7-6.4,12c-5.3,15.6-8.7,31.6-8.9,48.2c-0.1,4.9,0.1,9.7,0.7,14.6 c0.3,2.1,1.4,2.9,3.4,2.6c2.2-0.4,4.3-0.8,6.5-1c0.7-0.1,1,0,1,0.8c0,6.9,0,13.8,0,20.6c0,0.4,0,0.8-0.3,1.1 c-3.3,3.1-4.5,7.2-4.9,11.5c-0.4,4.4,0,8.7,2.7,12.5c0.6,0.8,0.4,1.2-0.3,1.7c-3.4,2.8-5.6,6.3-6.9,10.4c-0.7,2.1,0.7,3.8,2.8,3.5 c1.3-0.2,1.8-1.1,2.1-2.2c1.1-3.5,3.1-6.3,6-8.5c0.4-0.3,0.8-0.6,1.4-0.2c5.4,3.3,11.4,4.5,17.7,3.8c4.1-0.5,7.7-2,9.9-5.9 c0.4-0.7,0.8-0.9,1.6-0.8c5.4,0.4,10.8,0.8,16.3,1.2c2.6,0.2,2.6,0.2,2.8,2.9c0.6,7.8,1.2,15.6,1.8,23.4c0.6,8.2,1.4,16.5,0.9,24.8 c-0.5,7.1-0.9,14.1-0.3,21.2c0.2,2.6,0.6,3.1,3.2,3.7c-0.2,0.3-0.4,0.6-0.6,0.9c-4.3,6-7.9,12.4-10.8,19.3 c-2.4,5.8-4.5,11.7-5.4,17.9c-0.1,0.7-0.5,0.7-1,0.7c-5.1,0.8-10.1,1.8-15.2,3c-20.2,4.9-39.2,12.8-58.1,21.2 c-0.6,0.3-1.2,0.7-1.4,1.4c0,0.4,0,0.8,0,1.3c0.9,1.9,2.2,2.5,4.1,1.6c1-0.4,2-0.9,3-1.3c13.9-6.1,27.8-12,42.4-16.3 c8.6-2.6,17.3-4.7,26.2-5.9c0.4-0.1,0.7-0.3,1.1,0.2c2,3,5,4.3,8.3,5.2c5.4,1.5,11,1.6,16.6,1.8c8.4,0.3,16.7-0.4,24.9-2.1 c4-0.8,7.9-1.8,11.8-3.1c3.7-1.2,4.9-3.1,5-6.9c0-0.1,0-0.2,0-0.4c-0.1-0.5,0.2-0.8,0.7-0.9c4-0.5,8-0.8,12.1-0.4 c1,0.1,1.3,0.5,1.3,1.5c0,3.7,1.3,5.5,4.7,6.8c0.5,0.2,1,0.3,1.5,0.5c12.7,3.9,25.7,5.4,38.9,4.7c4.6-0.3,9.3-0.5,13.7-1.8 c2.8-0.8,5.5-2,7.3-4.5c0.5-0.7,1-0.9,1.8-0.8c16.3,2.6,32.5,5.9,48.5,10c12.9,3.3,25.6,7.1,38.1,11.4c2.1,0.7,3,0.3,3.6-1.6 c0-0.4,0-0.8,0-1.3C445.6,598.8,444.9,598.3,443.8,597.9z M290.9,538.7c-1,8.4-1.8,16.8-2.5,25.2c-0.2,1.8-0.3,3.6-0.5,5.4 c0,0.6-0.2,0.8-0.8,0.7c-4.2-0.6-8.3-0.3-12.4,0.3c-1,0.1-1.4,0-1.5-1.2c-0.8-8.8-1.4-17.5-2.5-26.2c-0.2-1.5-0.3-3-0.5-4.5 c-0.1-0.8,0.1-1.2,1-1.1c0.2,0,0.3,0,0.5,0c2.2-0.2,3.1-1.3,2.8-3.5c-0.4-2.8-0.8-5.5-1.2-8.3c-0.9-6.8-1.5-13.6-1.7-20.4 c-0.4-10.7-0.1-21.3,0.9-32c0.3-2.7,0.6-5.3,0.9-8c0.1-0.7,0.3-0.8,0.9-0.8c3.7,0,7.4,0,11,0c0.9,0,2-0.6,2.6,0.2 c0.5,0.6,0.3,1.7,0.4,2.6c1.2,9.9,1.8,19.8,1.7,26.7c-0.1,15.4-1.1,27.7-3.1,39.9c-0.4,2.2,0.5,3.3,2.7,3.6 C291.1,537,291.1,537,290.9,538.7z"/> <path class="st1" d="M446,601.1c0,3.6,0,7.2,0,10.8c0,0.6-0.1,0.8-0.7,0.7c-0.2,0-0.3,0-0.5,0c-92.4,0-184.8,0-277.2,0 c0-0.6,0.6-0.6,1-0.7c1.1-0.3,2.3-0.5,3.3-0.9c1.2-0.4,2-1.6,1.7-2.7c-0.3-1.2-1.4-1.9-2.8-1.6c-1.4,0.3-2.8,0.7-4.2,1.1 c-1.8,0.6-2.2,2.3-0.9,3.8c0.3,0.3,0.7,0.4,0.6,0.9c-11.9,0-23.8,0-35.6,0c-0.7,0-0.9-0.1-0.9-0.9c0.1-2.8,0-5.7,0-8.5 c0.1-0.1,0.3-0.1,0.4,0c1.5,1.8,2.4,2,4.5,1c12.7-5.6,25.5-11.1,38.6-15.4c10.3-3.4,20.7-6.2,31.4-7.7c1.3-0.2,2.2,0,3.1,1.2 c1.7,2.3,4.4,3.3,7,4.1c3.7,1.1,7.5,1.5,11.2,1.6c3.6,0.1,7.3,0.4,10.9,0.3c8.9-0.3,17.8-1.4,26.4-3.8c1.9-0.5,3.8-1,5.6-1.7 c2.6-1.1,4-2.9,4-5.8c0-1.9,0.1-2,2-2.2c3.5-0.5,7.1-0.7,10.6-0.4c2,0.2,2.2,0.4,2.2,2.3c0,3.1,1.4,5,4.6,6.1 c3.1,1.1,6.2,1.8,9.4,2.6c5,1.2,10,1.9,15,2.3c5.4,0.4,10.8,0.5,16.3,0.1c3.7-0.2,7.4-0.4,11.1-1.2c1.9-0.4,3.7-0.9,5.4-1.9 c1.4-0.8,2.7-1.7,3.7-3c0.6-0.8,1.4-1.1,2.4-0.9c11.2,1.8,22.3,3.9,33.3,6.4c9.7,2.2,19.4,4.7,28.9,7.4c8,2.3,15.8,4.8,23.7,7.4 c2.1,0.7,2.4,0.7,3.8-1.1C445.8,601.1,445.9,601.1,446,601.1z"/> <path class="st0" d="M166.4,612.7c-0.1-0.4-0.5-0.4-0.7-0.6c-0.8-0.6-1.1-1.4-1-2.4c0.2-1,0.7-1.7,1.7-2c1.5-0.5,3-0.9,4.5-1.2 c1.5-0.3,2.7,0.5,3,1.8c0.4,1.4-0.4,2.7-1.9,3.1c-1.5,0.4-3,0.7-4.4,1.3C167.2,612.7,166.8,612.7,166.4,612.7z"/> <path class="st0" d="M197.5,605.8c0,1.5-1,2.5-2.4,2.5c-1.5,0-2.4-1-2.5-2.5c0-1.5,1-2.6,2.4-2.6 C196.5,603.3,197.5,604.3,197.5,605.8z"/> <path class="st2" d="M209.9,348.1c3.9-3.7,6.9-7.9,8.7-12.8c3.3-9,3-17.8-2.9-25.7c-5.3-7.1-12.4-11.3-21.5-11.4 c-0.8,0-1.6-0.1-2.4,0.2c-1.2,0.4-1.2-0.2-1.2-1.1c-0.1-9.5,0.6-19,1.4-28.5c0.8-9.7,1.5-19.4,2.2-29c0.5-6.5,1-13,1.5-19.5 c0-0.4,0.1-0.7,0.2-1.2c2.5,2,5.3,3.2,8.4,3.9c7.6,1.5,14.1-0.5,19.9-5.6c2.2-2,4.1-4.2,6.1-6.6c0.4,0.9,0.7,1.6,1.1,2.3 c2.9,5.5,7.5,8.9,13.2,11.1c8.6,3.3,17.4,3.7,26.2,1.1c4-1.2,7.4-3.3,9.8-6.9c6.2,7.8,22.9,11.3,33.2,6.2c4.2-2.1,7.6-5,9.5-9.3 c8.9,11,20,15.6,34.1,11.9c0.1,2.9,0.1,6,0.3,9.1c0.4,11.5,0.9,23.1,1.3,34.6c0.3,9.3,0.6,18.5,0.9,27.8c0,0.5-0.1,0.7-0.6,0.6 c-8.6-1.5-15.8,1.8-22.3,7c-5.6,4.5-9.1,10.2-9.9,17.4c-0.7,6.7,0.9,12.8,4.3,18.6c1.4,2.4,3,4.5,4.9,6.5c0.7,0.7,0.6,0.9-0.2,1.2 c-5.7,2.3-11.7,3.8-17.8,4.6c-10.8,1.4-21.6,1.3-32.4,1c-7.2-0.2-14.4-0.4-21.6-0.8c-8.4-0.5-16.8-1.2-25.2-2.1 c-7.9-0.9-15.9-1.9-23.7-3.2C213.4,349.1,211.7,348.8,209.9,348.1z"/> <path class="st3" d="M188.9,439c-1.7-3.4-1.8-7.1-2.3-10.8c-0.6-5-1.2-10.1-1.8-15.2c1.2,0.3,2.5,0.5,3.7,1 c2.5,0.9,3.8-1.3,3.5-3.2c-0.8-4.4-1.3-8.9-1.6-13.4c-0.5-6.9-0.5-13.7-0.1-20.6c0.1-1.9-0.6-2.8-2.2-2.9c-1.7-0.1-2.8,0.9-2.9,2.8 c-0.3,5.9-0.4,11.7-0.1,17.6c0.2,4.3,0.6,8.6,1.2,12.9c0.1,0.8,0.1,1.1-0.9,0.9c-7.9-1.7-15.9-1.9-23.9-0.5 c-1.3,0.2-1.2-0.4-1.3-1.3c-0.7-9.3-0.2-18.5,1.2-27.7c1.5-9.9,3.8-19.7,7.2-29.1c1.9-5.2,4.5-10.1,8.7-13.9 c3.1-2.8,6.7-4.6,10.7-5.7c0.7-0.2,1-0.1,1.2,0.7c0.8,2.9,1.8,5.7,3,8.4c3.3,7.6,9.1,12.2,17,14.4c4.9,1.3,9.9,2,15,2.6 c3.9,0.5,7.8,1,11.8,1.5c0.4,0,0.6,0.2,0.9,0.5c4.8,4.7,8.7,10.1,12.3,15.7c4.8,7.7,8.8,15.8,13.8,23.4c1.7,2.6,3.3,5.4,5.3,7.8 c0.6,0.8,1.3,1.5,2.1,2.1c2.6,2.1,5.1,2.1,7.7,0c1.9-1.6,3.5-3.5,5.3-5.2c7.4-7.7,13.3-16.6,19.2-25.4c3.5-5.2,6.9-10.4,10.3-15.6 c0.3-0.5,0.7-0.7,1.3-0.8c8.2-0.8,16.1-2.4,23.6-5.7c1.4-0.6,2.7-1.4,4.2-1.6c1-0.1,1.4-1.2,2.3-1.7c3.4-1.9,6.4-4.3,9.2-7.1 c4.3-4.3,7.4-9.4,9.3-15.2c0.3-0.8,0.5-0.9,1.3-0.7c4.1,1.4,8,3.1,11.3,6c2.8,2.4,4.5,5.6,6,8.9c4.7,9.6,7.8,19.8,9.9,30.3 c1.8,9.1,2.4,18.2,2.1,27.4c-0.1,2.1-0.3,4.1-0.4,6.2c0,0.7-0.3,0.8-0.9,0.7c-2.9-0.5-5.8-0.7-8.7-0.9c-5.2-0.2-10.4,0.3-15.5,1.4 c-0.9,0.2-1.1,0.2-1-0.9c1.4-10,1.8-20.1,1.2-30.1c0-0.6,0-1.1-0.3-1.6c-0.5-1.1-1.8-1.7-3.1-1.4c-1.2,0.3-1.8,1.1-1.7,2.5 c0.2,3.3,0.3,6.6,0.3,9.9c0,8.1-0.6,16.1-2,24.1c-0.4,2.3,0.9,4.4,3.8,3.4c1.3-0.4,2.6-0.7,3.9-1c0.4-0.1,0.7-0.2,0.7,0.4 c0.6,5.2,1.7,10.4,0.9,15.7c-0.4,3-1.8,5.7-3.2,8.3c-1.4,2.6-2.8,5.1-3.4,8c-0.2,0.9-0.3,1.7-0.3,2.6c0,0.8-0.3,1.1-1,1.3 c-9.9,2.5-20,4.5-30.2,6c-11.4,1.7-22.9,2.7-34.5,3.3c-11.3,0.6-22.7,0.7-34,0.4c-12.1-0.2-24.2-0.8-36.3-1.6 c-9.8-0.7-19.5-1.3-29.3-2c-0.7,0-1-0.2-1.2-1c-0.3-1.6-1.1-3.1-2-4.5c-0.5-0.8-1.1-1.6-1.6-2.4c-0.7-1.1-1.9-2.1-1.9-3.2 c0-1,1.1-2.1,1.7-3.2c4.7-7.4,11.2-12.6,19.4-15.7c0.4-0.2,0.9-0.6,1.3-0.2c0.4,0.4-0.1,0.9-0.2,1.3c-1.1,3.2-1.6,6.4-0.8,9.7 c1,4.4,4.3,7.5,8.7,8.1c4.4,0.6,7.7-1.5,10.1-5.1c1.3-1.9,1.8-4.1,2.1-6.5c2.6,1.7,5.4,2.5,8.4,2.9c2.9,0.4,5.9,0.5,8.8,0.1 c3.1-0.5,5.7-1.8,6.8-5c1.2-3.5,0.5-6.7-2-9.4c-1.5-1.7-3.4-2.8-5.5-3.5c-0.3-0.1-0.7-0.1-1-0.4c4.3-1.9,7.4-4.9,8.6-9.5 c1.5-5.8-1.6-11.5-7.2-12.6c-2.9-0.6-5.5,0.3-8.1,1.6c-3,1.6-5.5,3.8-8,6.3c-0.1-1.6,0.1-3,0-4.5c-0.4-7.1-6.4-11.5-13.3-9.7 c-3.7,1-5.9,4.9-5.1,9.1c0.4,2,1.1,3.9,1.9,5.8c0.2,0.5,0.5,0.9,0.4,1.6c-1.9-1.9-3.5-3.9-5.5-5.6c-1.9-1.7-4.1-2.8-6.7-2.9 c-3.7-0.2-6.5,1.6-8.1,4.9c-1.7,3.6-2.1,7.4-1.4,11.3c0.5,2.5,1.9,4,4.3,4.9c3.1,1.1,6.4,1,9.6,0.9c1.6-0.1,3.2-0.3,4.8-0.4 c0.3,0,0.5-0.2,0.6,0.2c0.2,0.6-0.2,0.5-0.5,0.6c-3.8,0.9-7.4,2.3-10.8,4.2c-6.5,3.6-11.7,8.4-15.7,14.6c-0.2,0.3-0.4,0.6-0.6,0.9 C189,438.9,189,439,188.9,439z"/> <path class="st4" d="M261.2,180.7c7.2-0.1,14.3-0.2,21.5,0c20.6,0.5,40.9,2.6,60.6,8.8c5.4,1.7,10.8,3.7,16,6 c0.7,0.3,1,0.7,1.1,1.5c0.2,3.8,0.1,7.5-0.1,11.3c-0.1,2.4,0.1,4.8-0.3,7.2c-0.7,4.7-3.1,6.9-7.8,7.7c-11.9,1.9-23.5-5.7-27.5-16.1 c-0.1-0.3-0.2-0.5-0.3-0.8c-0.6-1.4-1.7-2-2.9-1.7c-1.4,0.3-2.2,1.5-2,3c0.2,1.6,0.2,3.1-0.2,4.6c-1,3.7-3.6,6-7,7.6 c-5.7,2.7-11.7,2.7-17.7,1.1c-3.3-0.9-6.4-2.1-9-4.5c-1.8-1.7-2.8-3.8-3.1-6.3c-0.2-1.8-1.6-2.8-3.3-2.3c-1.1,0.3-1.7,1-1.7,2.2 c-0.3,6.3-2.5,9.4-8.7,10.9c-9.5,2.4-18.8,1.6-27.3-3.9c-4.4-2.8-6.9-7-7.3-12.3c-0.1-1.1-0.6-2-1.7-2.3c-1.2-0.4-2.3,0-3,1.1 c-1.9,2.7-3.9,5.5-6.2,7.9c-3.8,4.1-8.3,7-14.1,7c-4.8,0-9.1-1.3-12-5.5c-1.9-2.8-2.6-5.9-2.7-9.3c0-4.8,1-9.3,2.4-13.9 c0.2-0.7,0.7-0.8,1.2-1.1c5.9-2.7,12.2-4.3,18.6-5.3c9.2-1.4,18.5-1.6,27.8-2C250.1,181.1,255.6,180.9,261.2,180.7z"/> <path class="st5" d="M316,532.8c-6.7,0.2-13.3,0.1-20-0.4c-0.8-0.1-1.7-0.2-2.5-0.2c-1.2,0-1.4-0.5-1.2-1.6 c2.1-13.5,2.9-27,2.6-40.6c-0.2-8.5-0.8-16.9-1.9-25.3c-0.1-0.7,0-0.9,0.7-0.9c8.1-0.3,16.3-0.8,24.4-1.6c6.5-0.7,13-1.5,19.5-2.5 c1.5-0.3,1.6-0.3,1.4,1.3c-0.7,10-1.3,20-2.1,30c-0.7,8.2-0.6,16.4-0.1,24.7c0.3,5.3,0.4,10.5,0.1,15.8c0,0.6-0.2,0.9-0.9,0.9 c-4.8,0.1-9.7,0.3-14.5,0.5C319.6,532.8,317.8,532.8,316,532.8z"/> <path class="st5" d="M245.1,463.4c7.4,0.4,14.8,0.5,22.3,0.7c0.9,0,0.9,0.3,0.8,1c-1.7,12.7-2.2,25.4-1.8,38.1 c0.3,9.2,1.1,18.4,2.6,27.5c0.2,1.1,0.1,1.5-1.2,1.6c-4.5,0.3-9.1,0.6-13.6,0.6c-9.6,0.2-19.1-0.2-28.6-0.5c-0.9,0-1.1-0.3-1.1-1.1 c-0.3-7,0.3-13.9,0.6-20.8c0.3-5.5,0-11-0.5-16.5c-0.7-9-1.4-18-2.1-27c-0.1-1.3-0.1-2.6-0.3-3.9c-0.1-0.8,0.1-1,0.9-1 c4.8,0.3,9.6,0.6,14.5,0.9C240,463.2,242.5,463.3,245.1,463.4z"/> <path class="st6" d="M214.3,564.2c1.3-3.7,2.8-7.1,4.5-10.5c2.7-5.3,5.8-10.3,9.4-15c0.5-0.7,1-1,1.9-0.9 c7.1,0.3,14.3,0.5,21.5,0.4c4.2-0.1,8.4-0.2,12.6-0.4c0.8,0,1,0.1,1.1,0.9c0.9,7.1,1.6,14.2,2.2,21.3c0.1,0.6,0,0.8-0.7,0.9 c-9.8,1.2-19.5,2.1-29.4,2.6c-7.3,0.4-14.5,0.7-21.8,0.7C215.1,564.2,214.8,564.2,214.3,564.2z"/> <path class="st6" d="M346.9,563.9c-2.8,0-5.6,0.1-8.4,0c-9.8-0.3-19.6-0.8-29.4-1.7c-4.9-0.5-9.7-1.1-14.5-1.6 c-0.7-0.1-0.8-0.2-0.8-0.9c0.7-7.1,1.4-14.2,2.3-21.2c0.1-0.9,0.4-1,1.2-1c6.2,0.4,12.5,0.6,18.7,0.4c5.2-0.1,10.3-0.3,15.5-0.4 c0.5,0,1,0,1.4,0.5c5.9,7.8,10.7,16.3,14.1,25.5C346.8,563.6,346.8,563.8,346.9,563.9z"/> <path class="st7" d="M359.9,311.1c0,6.5-0.5,12.8-2.9,18.9c-2.9,7.4-8.3,12.6-14.9,16.7c-0.5,0.3-0.8,0.2-1.1-0.2 c-6.1-5.8-9.6-12.7-9.2-21.3c0.2-5.7,2.9-10.3,7-14.1c4.4-4,9.4-6.7,15.4-7.2c1.6-0.1,3.2,0.1,4.8,0.4c0.7,0.2,1,0.5,0.9,1.2 C359.9,307.4,359.9,309.2,359.9,311.1z"/> <path class="st8" d="M325.8,583.4c-9.7,0.1-19.4-1.4-29-4.2c-1.9-0.5-3.7-1.2-4-3.5c-0.1-0.8-0.1-1.6,0-2.4 c0.1-2.2,0.4-4.5,0.4-6.7c0-1,0.4-1,1.2-0.9c10.2,1.3,20.5,2.2,30.8,2.8c7.5,0.4,15,0.6,22.5,0.6c0.7,0,1.1,0.2,1.3,0.9 c0.7,2.3,1.6,4.6,1.2,7.1c-0.4,1.9-1.5,3.2-3.2,3.9c-2.6,1-5.3,1.3-7.9,1.7C334.7,583.2,330.3,583.4,325.8,583.4z"/> <path class="st8" d="M224.9,569.1c10.3-0.3,19.1-0.9,27.9-1.7c4.6-0.5,9.3-1,13.9-1.5c0.9-0.1,1.2,0.1,1.3,1.1 c0.1,2.6,0.3,5.3,0.5,7.9c0.1,2.3-0.7,3.6-3,4.3c-3.1,0.9-6.1,1.7-9.3,2.4c-10.4,2.2-21,2.7-31.6,1.7c-2.9-0.3-5.8-0.8-8.6-1.4 c-4-0.9-5.5-2.9-4.9-7.1c0.2-1.6,0.7-3.1,1.1-4.6c0.2-0.5,0.4-0.8,1-0.8C217.7,569.2,222.1,569.2,224.9,569.1z"/> <path class="st2" d="M180.2,412.3c-0.8,1.6-0.1,3.2,0,4.8c0.6,5.9,1.3,11.8,2.1,17.7c0.5,3.8,2,7.3,4,10.6c1.3,2.2,2.7,4.2,4.1,6.4 c0.9,1.4,1.6,2.8,1.8,4.5c0.3,1.9-0.4,3.4-2,4.5c-1.6,1.1-3.3,1.5-5.2,1.6c-4.3,0.2-8.5-0.6-12.4-2.7c-4.1-2.2-6.3-5.6-6.4-10.3 c-0.1-3.1,0.2-6.1,1.7-8.9c0.5-1,1.2-2,2.1-2.5c1.3-0.8,1.6-1.9,1.6-3.2c0-7.2,0-14.4,0-21.6c0-1.5,0-1.5,1.6-1.4 c1.9,0.1,3.7,0.2,5.6,0.4C179.3,412.1,179.8,412,180.2,412.3z"/> <path class="st7" d="M195.1,303.3c9.7,0.1,19.3,8.8,20.3,18.9c0.9,9.7-3.1,17.3-10.3,23.4c-0.6,0.5-0.9,0.2-1.3-0.1 c-3.7-2.3-5.9-5.8-7.4-9.8c-2.3-6.2-3.6-12.6-4.6-19.1c-0.6-4-0.9-7.9-1.1-11.9c0-0.8,0.1-1.1,0.9-1.2 C192.7,303.4,193.7,303.3,195.1,303.3z"/> <path class="st2" d="M381.1,411.6c3.6,0.1,6.7,0.3,9.9,0.8c0.7,0.1,0.9,0.3,0.7,1.1c-1.7,5.7-3.2,11.5-5,17.2 c-1,3.3-0.8,6.4,1.1,9.4c0.2,0.4,0.5,0.7,0.7,1.1c2.6,4.5,1.8,9.2-2.5,12.2c-4.3,3-8.9,3.2-13.5,0.9c-3.3-1.6-4.4-4.7-3.4-8.5 c0.6-2.1,1.5-4.1,2.7-6c4-6.1,4.7-12.9,3.8-19.9c-0.3-2.3-0.5-4.6-0.8-6.9c-0.1-0.8,0.1-1.1,1-1.1 C377.7,411.8,379.6,411.6,381.1,411.6z"/> <path class="st9" d="M244.3,358.2c3.3,0.3,6.4,0.5,9.5,0.8c7.4,0.6,14.7,1,22.1,1.3c8.8,0.4,17.7,0.5,26.5,0.3 c0.7,0,1.4-0.1,2.2-0.1c0.4,0,0.8-0.3,1,0.3c0.1,0.5,0.4,0.9,0,1.4c-1.7,2.3-3.3,4.7-4.8,7.1c-0.4,0.5-0.8,0.4-1.2,0.4 c-4.9-0.5-9.8-0.9-14.7-1.2c-10.5-0.5-21-0.2-31.5,0.9c-0.5,0.1-0.9,0-1.2-0.5C249.9,365.3,247.3,361.8,244.3,358.2z"/> <path class="st10" d="M255.5,374.3c14-1.2,27.7-1.1,41.7,0.3c-1.1,1.6-2.1,3.1-3.1,4.5c-1.1,1.6-2.2,3.2-3.2,4.8 c-0.3,0.4-0.5,0.7-1.1,0.3c-0.4-0.3-0.9-0.3-1.4-0.3c-8.7-0.2-17.3,0.3-25.9,1.3c-0.4,0.1-0.7,0.1-1-0.4 C259.6,381.4,257.6,378,255.5,374.3z"/> <path class="st11" d="M362.5,238.1c0-3.3,0-6.4,0-9.5c0-0.7,0.2-0.9,0.9-0.8c4.5,0.4,9.1,0.8,13.6,1.1c0.9,0.1,1.9,0,2.8-0.1 c1.7-0.3,2.7-1.9,2.2-3.6c-0.4-1.5-0.2-2.3,1.1-3.2c2.2-1.5,3.9-1.4,5.9,0.6c1.8,1.8,2.5,4.1,2.8,6.6c0.3,2.6,0.3,5.3-0.4,7.9 c-0.4,1.6-1.2,3-2.3,4.1c-1.4,1.5-3.3,1.8-5.1,0.9c-1.2-0.6-1.8-1.4-1.7-2.8c0.1-1.9-0.7-2.8-2.6-3c-5.5-0.5-10.9,0.4-16.2,1.7 C363.2,237.9,363,238,362.5,238.1z"/> <path class="st11" d="M177.8,233.9c-1.3,0-2.6,0-3.8,0.2c-1.7,0.3-2.6,1.3-2.4,2.9c0.2,2.3-0.6,3.1-2.9,3.1c-3,0-4.9-1.1-5.8-4 c-1.5-4.6-1.5-9.2,0.6-13.6c0.4-0.9,1-1.6,1.7-2.3c2-1.9,4.6-1.8,6.4,0.4c0.6,0.7,0.6,1.5,0.3,2.3c-0.5,1.4-0.1,2.5,1,3.3 c1.3,0.9,2.6,0.6,3.3-0.7c0.3-0.5,0.4-0.6,1-0.6c4.1,0.4,8.2,0.7,12.3,1.1c0.7,0.1,0.9,0.2,0.8,0.9c-0.2,2.6-0.4,5.2-0.6,7.8 c0,1-0.5,0.8-1.1,0.7C185,234.4,181.4,233.9,177.8,233.9z"/> <path class="st12" d="M236.9,415.8c-0.4-1.3-0.9-2.5-1.6-3.5c-0.3-0.4-0.3-0.7,0-1.1c2.5-3.5,5.3-6.7,8.9-9.1 c1.7-1.1,3.5-1.9,5.6-1.6c2.9,0.5,4.6,2.9,3.8,5.8c-0.7,2.8-2.4,4.7-4.9,6c-2.9,1.6-6.1,2.1-9.3,2.6 C238.6,415,237.7,415.1,236.9,415.8z"/> <path class="st13" d="M287.3,389c-1.1,1.3-1.9,2.5-2.9,3.6c-2.4,2.8-4.7,5.6-7.1,8.4c-1.8,2.1-3.6,2.1-5.3,0 c-2.7-3.2-4.8-6.9-7-10.4c-0.4-0.6,0-0.6,0.5-0.7c5-0.5,10-0.9,15.1-1C282.7,388.9,284.8,389,287.3,389z"/> <path class="st12" d="M247.5,431c-2.4-0.2-5.1-0.2-7.8-1.2c-1.7-0.6-3.1-1.6-4.3-2.9c-0.4-0.5-0.3-0.7-0.1-1.3 c0.9-2.3,2.6-2.7,4.7-2.9c3.1-0.3,6.2-0.8,9.3-0.1c2.7,0.6,4.3,2.2,4.4,4.5c0.1,2-0.7,3.1-2.6,3.6C250.2,431,249,431,247.5,431z"/> <path class="st12" d="M208.9,413.7c-0.9,0-2.6,0.1-4.3-0.1c-1.4-0.2-2.1-1-2.3-2.2c-0.4-2.4-0.2-4.9,0.9-7.1c1.1-2.3,2.8-2.8,5-1.7 c2.4,1.2,4.3,3.2,6.2,5c0.4,0.4,0.8,0.9,1.2,1.3c1.8,1.8,1.8,1.8,0.8,4.2c-0.2,0.4-0.4,0.4-0.7,0.4 C213.7,413.7,211.7,413.7,208.9,413.7z"/> <path class="st12" d="M229.3,429.4c-0.1,2.2-0.3,4.2-1,6.1c-0.9,2.6-2.6,4.2-4.4,4.1c-2.7-0.1-5.3-2.2-5.8-4.7 c-0.6-2.8,0.2-5.3,1.3-7.8c0.4-0.9,0.7-2.1,1.4-2.4c0.9-0.4,1.5,0.9,2.2,1.4c1.7,1.1,3.4,2.1,5.4,2.4 C229.2,428.5,229.4,428.8,229.3,429.4z"/> <path class="st14" d="M221.2,415.4c0-2.3,2-4.1,4.4-3.9c4.3,0.4,7.5,4.8,6.7,9c-0.5,2.4-2.1,3.3-4.3,2.3c-2.5-1.1-4.5-3-6-5.3 C221.4,416.9,221.1,416.2,221.2,415.4z"/> <path class="st12" d="M229.5,407.4c-1.4-0.5-2.9-0.9-4.4-0.9c-0.3,0-0.5,0-0.6-0.4c-0.3-2-1.4-3.6-2.1-5.4 c-0.4-1.1-0.8-2.2-0.9-3.3c-0.2-2.3,1.2-3.7,3.5-3.6c3.2,0.2,4.9,2,5,5.2c0,1,0,2-0.1,3C229.9,403.8,229.7,405.6,229.5,407.4z"/> <path class="st0" d="M329.2,275c-0.1-2.4,0.7-4.2,2.7-5.2c1.9-1,3.8-0.8,5.5,0.6c1.7,1.4,2.4,4.1,1.6,6.7c-0.6,2.1-2.2,3.4-4.6,3.6 c-2.5,0.3-5.1-2-5.3-4.7C329.1,275.6,329.2,275.2,329.2,275z"/> <path class="st0" d="M223.3,274.3c0.1,2.2-0.6,4-2.6,5c-1.8,1-3.7,0.9-5.4-0.3c-2.2-1.6-2.3-4-1.9-6.4c0.3-2,1.6-3.4,3.7-4 C220.2,267.8,223.7,270.3,223.3,274.3z"/> <path class="st0" d="M280.2,426.7c0.1,2.2-0.6,4-2.6,5c-1.8,1-3.7,0.9-5.4-0.3c-2.2-1.6-2.3-4-1.9-6.4c0.3-2,1.6-3.4,3.7-4 C277.2,420.2,280.6,422.7,280.2,426.7z"/> <path class="st0" d="M276.4,300.2c-1.7,0-3.9-0.4-6-1.3c-1.4-0.6-1.9-1.6-1.8-3c0.2-1.6,1.5-2.5,3-1.9c3.7,1.5,7.4,1.5,11.1-0.1 c1.3-0.6,2.9,0.2,3.4,1.6c0.5,1.4,0.1,2.3-1.5,3C282.4,299.6,279.6,300.2,276.4,300.2z"/> </g> </svg>